PathFileType	4	(X/Y/Z)	./resultDataOpenSim/trcMotMarkerGrf/sub06/qtm-02-07.trc
DataRate	CameraRate	NumFrames	NumMarkers	Units	OrigDataRate	OrigDataStartFrame	OrigNumFrames
250.000000	250.000000	13	24	m	250.000000	248	494
Frame#	Time	L.Toe.Tip			R.Toe.Tip			L.Ankle.Lat			R.Ankle.Lat			L.Ankle.Med			R.Ankle.Med			L.Heel			R.Heel			L.Knee.Lat			R.Knee.Lat			L.Knee.Med			R.Knee.Med			L.Thigh.Upper			R.Thigh.Upper			L.ASIS			R.ASIS			V.Sacral			L.Acromium			R.Acromium			C7			L.Elbow			R.Elbow			L.Wrist.Lat			R.Wrist.Lat
		X1	Y1	Z1	X2	Y2	Z2	X3	Y3	Z3	X4	Y4	Z4	X5	Y5	Z5	X6	Y6	Z6	X7	Y7	Z7	X8	Y8	Z8	X9	Y9	Z9	X10	Y10	Z10	X11	Y11	Z11	X12	Y12	Z12	X13	Y13	Z13	X14	Y14	Z14	X15	Y15	Z15	X16	Y16	Z16	X17	Y17	Z17	X18	Y18	Z18	X19	Y19	Z19	X20	Y20	Z20	X21	Y21	Z21	X22	Y22	Z22	X23	Y23	Z23	X24	Y24	Z24

248	0.988	0.056385047	0.0091631465	-0.017080654	0.74853182	0.16148254	0.15855595	-0.053102529	0.070526229	-0.043573101	0.61865242	0.11078466	0.16888916	-0.047901659	0.087229621	0.04260541	0.63359308	0.1446545	0.085039549	-0.13091957	0.064570471	0.0025331849	0.59380475	0.063734076	0.10236786	0.11446316	0.40449002	-0.065752664	0.46829035	0.46912491	0.17649874	0.10238284	0.40816576	0.054122914	0.45533064	0.44186896	0.046297793	0.21327789	0.7757936	-0.13475286	0.26003221	0.77730154	0.21272775	0.30308072	0.81995997	-0.098372684	0.3363904	0.83207586	0.14506262	0.13540536	0.89843423	0.045915277	0.28379042	1.3077514	-0.14445992	0.25717946	1.2912361	0.21830469	0.19461737	1.3396492	0.030771956	0.30632537	0.98422097	-0.22107014	0.10689626	1.013201	0.26282968	0.53662953	0.90406342	-0.15990949	0.16775629	0.78646778	0.32271626
249	0.992	0.0564222	0.0091710394	-0.017103217	0.75795335	0.16278398	0.15797623	-0.052095842	0.071574236	-0.043975331	0.62856747	0.11073264	0.16793822	-0.0468401	0.088323424	0.042215924	0.64332985	0.14502888	0.084147798	-0.13003385	0.066597418	0.002019673	0.60435043	0.06354703	0.10120571	0.11879292	0.40400849	-0.066116488	0.47563804	0.46804889	0.17601617	0.10729579	0.40747974	0.053754265	0.46208854	0.44036405	0.045623991	0.21888027	0.77481764	-0.13459744	0.26837085	0.77593851	0.21292613	0.30896128	0.81896402	-0.09856216	0.34387736	0.83085875	0.14472607	0.1418894	0.89748785	0.046806436	0.2903465	1.3064701	-0.14404057	0.26394798	1.2897501	0.21889214	0.20139428	1.3385631	0.03146458	0.31450099	0.9831607	-0.22040346	0.11348256	1.0118733	0.2630048	0.5448803	0.90416984	-0.15869661	0.17314242	0.78494289	0.32316713
250	0.996	0.056472582	0.0091779127	-0.017139823	0.76686115	0.16345196	0.15739795	-0.051022048	0.072685052	-0.044387239	0.63784443	0.110403	0.16688938	-0.045711206	0.089482145	0.04182151	0.65247913	0.14512015	0.083180656	-0.12907063	0.068708035	0.0015424771	0.6141494	0.063209037	0.09992163	0.12322329	0.40352702	-0.066480849	0.48303085	0.46700612	0.17557317	0.11233565	0.40683852	0.053396811	0.4688793	0.43907855	0.045058509	0.22454695	0.77386131	-0.1344406	0.2768632	0.77467617	0.21318977	0.31498617	0.817957	-0.09885021	0.35139763	0.82960316	0.14434529	0.14846095	0.89651886	0.047674918	0.29694325	1.3052152	-0.14360711	0.27075838	1.2882909	0.2194906	0.20824722	1.3374775	0.032146732	0.32261067	0.98211672	-0.21974879	0.12014964	1.0105573	0.26322567	0.55305948	0.90419032	-0.1574998	0.17871191	0.78342536	0.3236205
251	1	0.056547447	0.0091891286	-0.017174355	0.7752963	0.16345827	0.15676984	-0.049875887	0.073860113	-0.044817011	0.64651125	0.10980331	0.16577328	-0.044521333	0.090698723	0.041401607	0.66104877	0.14489567	0.082150445	-0.12803227	0.070906207	0.0011515854	0.62317307	0.062678113	0.098602017	0.12777382	0.40303784	-0.066843914	0.49046069	0.46598244	0.17516917	0.11750609	0.40624273	0.053053426	0.47568846	0.43801415	0.044565049	0.23028296	0.77292073	-0.13427037	0.28541171	0.77351253	0.21346743	0.32110878	0.81695324	-0.099201542	0.35896002	0.82831353	0.14391674	0.15516175	0.89552188	0.048462376	0.30359548	1.3039924	-0.14315342	0.2776189	1.2868639	0.22010279	0.21520107	1.3363958	0.032768875	0.3306324	0.98104425	-0.21914497	0.12689622	1.0092665	0.26347866	0.56117185	0.90412708	-0.15631941	0.18455903	0.78194211	0.32408752
252	1.004	0.056654946	0.0092085502	-0.017189471	0.78327653	0.16284159	0.15596885	-0.048646061	0.075100884	-0.045259015	0.65457499	0.10895053	0.16462471	-0.043266407	0.091967219	0.040943619	0.66902462	0.14431978	0.081064307	-0.12692619	0.073181841	0.00085132508	0.63140002	0.061918251	0.097318184	0.13246707	0.40254013	-0.067200777	0.49791463	0.46497362	0.17477699	0.12281814	0.40567938	0.052722503	0.48252227	0.43717035	0.044114438	0.23609004	0.77198929	-0.13408377	0.29387558	0.77242989	0.21369313	0.32728729	0.81596888	-0.099583309	0.36656851	0.82700455	0.14344154	0.16200866	0.89450964	0.049176538	0.31031228	1.3028094	-0.14267509	0.28453277	1.2854727	0.22073131	0.22222987	1.3353423	0.033344744	0.33854049	0.97988473	-0.21863755	0.13372036	1.0080149	0.26374803	0.56921816	0.90398485	-0.15515837	0.19064555	0.78050118	0.32456469
253	1.008	0.056790781	0.0092363968	-0.017191664	0.79079039	0.16168813	0.15488636	-0.047309836	0.07640329	-0.045698185	0.66203822	0.10786679	0.16346906	-0.041921115	0.093292071	0.040453651	0.67636693	0.14335038	0.079935916	-0.12575198	0.075526027	0.00055800352	0.63882236	0.060909872	0.096119743	0.13731822	0.40203618	-0.067541674	0.50538083	0.46398222	0.17435462	0.12827797	0.40512788	0.052400706	0.48941453	0.43654889	0.04369673	0.24196802	0.77106118	-0.13388351	0.30215501	0.77141526	0.21382612	0.33350605	0.8150146	-0.09998074	0.37423442	0.82570183	0.14293106	0.16901019	0.893501	0.049846355	0.31709241	1.301676	-0.14216686	0.29149659	1.2841209	0.22137472	0.22924808	1.3343435	0.033975964	0.34633753	0.97861586	-0.21823319	0.14062784	1.0068035	0.26402998	0.5771927	0.90376641	-0.15402129	0.19685315	0.77909675	0.32503624
254	1.012	0.056940221	0.0092704902	-0.017203792	0.79780689	0.16008959	0.15346756	-0.045852798	0.077761508	-0.046124378	0.6689085	0.1065721	0.16231732	-0.040454875	0.094683178	0.039947447	0.68303241	0.14195699	0.078770034	-0.12448848	0.077954471	0.00013537681	0.64545389	0.059644467	0.095035359	0.14233693	0.40152547	-0.067860969	0.51285353	0.46301196	0.17386536	0.13387321	0.40457309	0.052095839	0.49639764	0.43614177	0.043309735	0.24791962	0.7701399	-0.13366625	0.31027275	0.77048275	0.21388609	0.33977188	0.81409414	-0.10038683	0.3819775	0.82443378	0.1424034	0.17617859	0.89251492	0.050500502	0.32392956	1.3006	-0.14162147	0.29850724	1.2828144	0.22203067	0.23619951	1.3333992	0.03474059	0.35406233	0.9773042	-0.21787673	0.14762473	1.0056251	0.26433009	0.58508857	0.90347123	-0.15291299	0.20312064	0.77772783	0.32549156
255	1.016	0.057094314	0.0093091892	-0.017239645	0.80429729	0.15810854	0.15171373	-0.044296055	0.07917731	-0.046548381	0.67518355	0.10508146	0.16117786	-0.038857271	0.096142974	0.03943138	0.68901777	0.14016077	0.077542036	-0.12310412	0.080510769	-0.00048356436	0.65132576	0.058121619	0.094076403	0.14753438	0.40100181	-0.068166046	0.52033486	0.46206935	0.17329162	0.13956438	0.40400424	0.051841912	0.50347788	0.43592134	0.042946744	0.2539535	0.76923632	-0.13343051	0.31831599	0.76964978	0.21392383	0.34610276	0.813204	-0.10079385	0.38981813	0.82322479	0.14187993	0.18353323	0.89156871	0.051176404	0.33081706	1.2995839	-0.1410321	0.30556502	1.2815585	0.22269896	0.24314998	1.332473	0.035566482	0.36175875	0.97607649	-0.21743366	0.15470754	1.0044763	0.26465135	0.59290077	0.90309833	-0.1518388	0.20947057	0.77639998	0.32593322
256	1.02	0.057255112	0.009352559	-0.017297022	0.81025602	0.15576955	0.14967135	-0.042683351	0.080660203	-0.046994774	0.68085321	0.10340021	0.160063	-0.037134277	0.097663118	0.038894823	0.69438357	0.13804201	0.076230031	-0.12157251	0.083231499	-0.0012402556	0.65647248	0.056355841	0.093232305	0.15292703	0.40045364	-0.068466766	0.52783739	0.46116964	0.17264139	0.14529494	0.40340128	0.051702772	0.51064401	0.43584287	0.042599545	0.26008167	0.76835676	-0.13318142	0.32634135	0.76891246	0.21397281	0.35251116	0.81233934	-0.10119432	0.3977671	0.82209113	0.14138195	0.19109109	0.89067522	0.051946592	0.33775117	1.2986285	-0.1403922	0.31267146	1.2803553	0.22338182	0.25023677	1.331519	0.036293344	0.36944727	0.97500758	-0.21675394	0.16186797	1.0033597	0.2649897	0.60062643	0.90264783	-0.15080268	0.21594051	0.77511443	0.32636677
257	1.024	0.057425443	0.0094000631	-0.017369584	0.81569916	0.15307122	0.14740545	-0.041027783	0.082214483	-0.047481484	0.68593769	0.10151092	0.15897759	-0.035286273	0.099229667	0.038314169	0.69921931	0.13568558	0.074863825	-0.11987746	0.086107353	-0.0020363793	0.66092754	0.054376234	0.092470355	0.15853021	0.39987061	-0.068763048	0.53538022	0.46033588	0.17193918	0.15105234	0.40273644	0.051718621	0.51789903	0.43585171	0.042270899	0.2663135	0.76749922	-0.13291791	0.33437103	0.76826243	0.21404065	0.35900123	0.81150297	-0.10157931	0.40581629	0.82104054	0.14092319	0.19884012	0.88983683	0.052925224	0.34473198	1.2977354	-0.13969689	0.31982769	1.2792036	0.22408338	0.25750392	1.3305253	0.036874307	0.37710253	0.97406988	-0.21589985	0.16910347	1.0022789	0.26534166	0.60826574	0.90212098	-0.14980395	0.22253338	0.77386702	0.32679235
258	1.028	0.05760259	0.0094476178	-0.017452277	0.82065602	0.14998199	0.14498046	-0.039285584	0.08383043	-0.048017177	0.69052881	0.099360606	0.157899	-0.033301424	0.10082681	0.037663648	0.70358888	0.13313509	0.073501607	-0.11801297	0.08909716	-0.0028274639	0.66473132	0.052215881	0.09175207	0.16435156	0.39924678	-0.069047671	0.54297961	0.45958934	0.17120505	0.15695087	0.40199228	0.051804889	0.52525746	0.43588633	0.04196844	0.27265393	0.76665943	-0.1326274	0.34242201	0.76770322	0.21412412	0.36557848	0.81070541	-0.10193224	0.41393878	0.82007664	0.14050725	0.20670636	0.88904166	0.054183613	0.35175743	1.2969081	-0.13894829	0.32703341	1.2780995	0.22480574	0.26483198	1.3295288	0.037453911	0.38466674	0.97320416	-0.21514877	0.17641637	1.0012351	0.26570975	0.61582091	0.90152048	-0.14883835	0.2292079	0.77265603	0.32720863
259	1.032	0.057783792	0.0094906652	-0.017538307	0.82517155	0.14643424	0.14246301	-0.037390406	0.085491587	-0.048609223	0.69478746	0.096876495	0.1567624	-0.031167311	0.10244619	0.036933028	0.70751791	0.13040426	0.072169923	-0.11597693	0.09217058	-0.0036257554	0.66793703	0.049905579	0.091046575	0.17039395	0.39857641	-0.069317756	0.55064096	0.45894005	0.17043741	0.16318323	0.4011749	0.051766179	0.53270223	0.43588865	0.04167912	0.2791068	0.76583553	-0.13229874	0.35050335	0.76723601	0.21421783	0.37225105	0.80995345	-0.10223282	0.42209744	0.81919991	0.14013185	0.21456013	0.88827139	0.055600687	0.35882274	1.2961491	-0.13815481	0.3342879	1.2770396	0.225547	0.27206941	1.3285789	0.038211921	0.39211871	0.97239325	-0.21460524	0.18380395	1.0002255	0.26609812	0.62329193	0.90084993	-0.14790384	0.23592506	0.77148736	0.32761938
260	1.036	0.057976549	0.0095324449	-0.017618773	0.8292903	0.14238306	0.1399204	-0.035300872	0.08718716	-0.049264957	0.69884941	0.094032882	0.15548477	-0.028883381	0.10409992	0.03613689	0.71101391	0.12750646	0.070843215	-0.11376066	0.095326544	-0.0044534737	0.6706066	0.047472394	0.090324081	0.17666082	0.39785263	-0.069585172	0.55835607	0.45838532	0.16961672	0.1698363	0.40031253	0.051469764	0.54017449	0.43582203	0.041365124	0.28567693	0.76502609	-0.13193305	0.35859685	0.76684033	0.21431133	0.3790231	0.80924314	-0.10247152	0.43025882	0.81840628	0.1397929	0.22229849	0.88751503	0.05687881	0.36592469	1.295459	-0.13732692	0.34159178	1.2760253	0.22630595	0.27919553	1.3276917	0.03917776	0.39950238	0.97165875	-0.21401861	0.1912588	0.99924776	0.26650772	0.6306736	0.90011163	-0.14700371	0.24273894	0.77037466	0.32803508
